<?xml version="1.0" standalone="no"?>
<!DOCTYPE svg PUBLIC "-//W3C//DTD SVG 20010904//EN"
 "http://www.w3.org/TR/2001/REC-SVG-20010904/DTD/svg10.dtd">
<svg version="1.0" xmlns="http://www.w3.org/2000/svg"
 width="400.000000pt" height="76.000000pt" viewBox="0 0 400.000000 76.000000"
 preserveAspectRatio="xMidYMid meet">

<g transform="translate(0.000000,76.000000) scale(0.100000,-0.100000)"
fill="#000000" stroke="none">
<path d="M790 380 c0 -331 2 -380 15 -380 13 0 15 49 15 380 0 331 -2 380 -15
380 -13 0 -15 -49 -15 -380z"/>
<path d="M1222 224 c-43 -30 -20 -104 33 -104 53 0 76 74 33 104 -12 9 -27 16
-33 16 -6 0 -21 -7 -33 -16z m52 -10 c20 -19 20 -44 2 -70 -12 -15 -18 -17
-33 -8 -22 13 -29 60 -12 80 15 18 24 18 43 -2z"/>
<path d="M2398 229 c-25 -14 -22 -32 7 -57 14 -13 23 -27 20 -32 -8 -13 -35
-13 -35 0 0 6 -4 10 -10 10 -5 0 -7 -7 -3 -16 8 -20 53 -14 67 9 9 15 6 22
-19 42 -22 18 -27 27 -18 36 8 8 13 8 17 0 4 -6 12 -11 18 -11 7 0 6 6 -2 15
-15 17 -19 18 -42 4z"/>
<path d="M2600 230 c0 -5 5 -10 10 -10 6 0 10 5 10 10 0 6 -4 10 -10 10 -5 0
-10 -4 -10 -10z"/>
<path d="M2640 230 c0 -5 5 -10 10 -10 6 0 10 5 10 10 0 6 -4 10 -10 10 -5 0
-10 -4 -10 -10z"/>
<path d="M2680 230 c0 -5 5 -10 10 -10 6 0 10 5 10 10 0 6 -4 10 -10 10 -5 0
-10 -4 -10 -10z"/>
<path d="M2720 230 c0 -5 5 -10 10 -10 6 0 10 5 10 10 0 6 -4 10 -10 10 -5 0
-10 -4 -10 -10z"/>
<path d="M2760 234 c0 -3 9 -17 20 -31 11 -14 20 -20 20 -12 -1 23 -40 66 -40
43z"/>
<path d="M1070 175 c0 -43 3 -55 15 -55 11 0 14 7 11 25 -4 21 -1 25 20 25 19
0 24 -5 24 -25 0 -17 6 -25 18 -25 14 0 17 8 14 55 -3 39 -8 55 -18 55 -8 0
-14 -9 -14 -20 0 -15 -7 -20 -24 -20 -19 0 -24 4 -21 20 2 13 -2 20 -11 20
-10 0 -14 -14 -14 -55z"/>
<path d="M1320 221 c0 -5 9 -7 21 -4 20 6 21 3 18 -46 -3 -40 -1 -51 11 -51
12 0 14 11 11 51 -3 49 -2 52 18 46 12 -3 21 -1 21 4 0 5 -22 9 -50 9 -27 0
-50 -4 -50 -9z"/>
<path d="M1445 175 l0 -56 39 3 c24 2 41 9 44 18 5 13 3 13 -11 1 -20 -16 -47
-8 -47 15 0 11 6 15 20 11 15 -4 20 0 20 13 0 13 -5 17 -20 13 -14 -4 -20 0
-20 12 0 13 6 16 25 13 14 -3 25 -1 25 3 0 5 -17 9 -37 9 l-38 0 0 -55z"/>
<path d="M1565 175 l0 -56 34 3 c20 2 36 9 39 18 4 12 2 13 -9 3 -27 -26 -39
-15 -39 37 0 33 -4 50 -12 50 -9 0 -13 -18 -13 -55z"/>
<path d="M1715 175 c0 -52 1 -55 26 -55 37 0 64 23 54 46 -4 10 -8 28 -9 39
-1 15 -9 21 -36 23 l-35 3 0 -56z m55 30 c0 -8 -5 -15 -11 -15 -8 0 -8 -5 1
-15 13 -16 7 -45 -10 -45 -5 0 -10 20 -10 45 0 33 4 45 15 45 8 0 15 -7 15
-15z"/>
<path d="M1820 194 c0 -19 5 -44 10 -55 12 -21 52 -26 68 -6 14 17 20 97 7 97
-5 0 -10 -21 -10 -47 0 -41 -3 -48 -20 -48 -17 0 -20 8 -23 48 -2 33 -7 47
-18 47 -9 0 -14 -11 -14 -36z"/>
<path d="M1945 175 c0 -55 0 -55 30 -55 43 0 75 25 75 59 0 37 -17 51 -64 51
l-41 0 0 -55z m73 33 c28 -28 2 -88 -33 -74 -10 3 -15 19 -15 46 0 32 4 40 18
40 10 0 23 -5 30 -12z"/>
<path d="M2086 188 c-28 -66 -29 -68 -18 -68 5 0 12 9 15 20 7 26 37 26 37 0
0 -13 7 -20 19 -20 18 0 18 2 -2 55 -11 30 -23 55 -26 55 -3 0 -15 -19 -25
-42z m20 -15 c-10 -10 -19 5 -10 18 6 11 8 11 12 0 2 -7 1 -15 -2 -18z"/>
<path d="M2185 175 c0 -42 3 -55 15 -55 12 0 14 11 11 51 -2 40 0 50 10 47 8
-3 13 -15 11 -27 -1 -15 3 -21 10 -19 7 3 13 16 13 29 0 20 -5 24 -35 27 l-35
3 0 -56z"/>
<path d="M2278 175 l-3 -56 39 3 c24 2 41 9 44 18 4 12 2 13 -9 3 -20 -19 -39
-16 -39 7 0 11 7 20 15 20 8 0 15 5 15 10 0 6 -7 10 -15 10 -8 0 -15 7 -15 16
0 12 6 15 26 10 17 -5 23 -3 19 4 -3 5 -21 10 -40 10 l-33 0 -4 -55z"/>
<path d="M2460 221 c0 -5 9 -7 21 -4 20 6 21 3 18 -46 -4 -48 -3 -51 21 -51
19 0 21 3 12 12 -7 7 -12 30 -12 51 0 37 2 39 25 33 14 -4 25 -2 25 4 0 5 -24
10 -55 10 -30 0 -55 -4 -55 -9z"/>
<path d="M2811 203 c-1 -17 5 -23 19 -23 14 0 20 6 19 23 -1 16 -2 18 -6 5 -2
-10 -8 -18 -13 -18 -5 0 -11 8 -13 18 -4 13 -5 11 -6 -5z"/>
<path d="M2860 185 c0 -44 20 -47 21 -2 0 19 3 26 7 17 11 -23 48 -23 49 0 2
23 -7 26 -25 8 -9 -9 -12 -9 -12 0 0 7 -9 12 -20 12 -16 0 -20 -7 -20 -35z"/>
<path d="M2957 200 c-3 -11 -2 -20 3 -20 4 0 10 9 13 20 3 11 2 20 -3 20 -4 0
-10 -9 -13 -20z"/>
<path d="M2990 202 c0 -12 4 -22 9 -22 10 0 9 26 -2 36 -4 4 -7 -2 -7 -14z"/>
<path d="M3027 213 c-4 -3 -7 -13 -6 -22 0 -12 3 -11 9 4 8 19 9 19 9 1 1 -15
4 -17 12 -9 6 6 8 16 5 22 -8 12 -20 14 -29 4z"/>
<path d="M3071 198 c0 -16 2 -18 6 -8 3 8 11 18 17 22 7 5 4 8 -6 8 -12 0 -18
-7 -17 -22z"/>
</g>
</svg>
